<?xml version="1.0" encoding="UTF-8" standalone="no"?>
<svg
   xmlns:dc="http://purl.org/dc/elements/1.1/"
   xmlns:cc="http://creativecommons.org/ns#"
   xmlns:rdf="http://www.w3.org/1999/02/22-rdf-syntax-ns#"
   xmlns:svg="http://www.w3.org/2000/svg"
   xmlns="http://www.w3.org/2000/svg"
   xmlns:sodipodi="http://sodipodi.sourceforge.net/DTD/sodipodi-0.dtd"
   xmlns:inkscape="http://www.inkscape.org/namespaces/inkscape"
   width="654.89996mm"
   height="254.16159mm"
   viewBox="0 0 654.89997 254.16159"
   version="1.1"
   id="svg8"
   inkscape:version="1.0.2 (1.0.2+r75+1)"
   sodipodi:docname="logo.svg">
  <defs
     id="defs2">
    <inkscape:path-effect
       effect="skeletal"
       id="path-effect1304"
       is_visible="true"
       lpeversion="1"
       pattern="M 0,5 C 0,2.24 2.24,0 5,0 7.76,0 10,2.24 10,5 10,7.76 7.76,10 5,10 2.24,10 0,7.76 0,5 Z"
       copytype="single_stretched"
       prop_scale="-0.351313"
       scale_y_rel="false"
       spacing="0"
       normal_offset="0"
       tang_offset="0"
       prop_units="false"
       vertical_pattern="false"
       hide_knot="false"
       fuse_tolerance="0" />
    <inkscape:path-effect
       effect="skeletal"
       id="path-effect1299"
       is_visible="true"
       lpeversion="1"
       pattern="M 0,5 C 0,2.24 2.24,0 5,0 7.76,0 10,2.24 10,5 10,7.76 7.76,10 5,10 2.24,10 0,7.76 0,5 Z"
       copytype="single_stretched"
       prop_scale="-0.33796681"
       scale_y_rel="false"
       spacing="0"
       normal_offset="0"
       tang_offset="0"
       prop_units="false"
       vertical_pattern="false"
       hide_knot="false"
       fuse_tolerance="0" />
    <inkscape:path-effect
       effect="skeletal"
       id="path-effect1295"
       is_visible="true"
       lpeversion="1"
       pattern="M 0,5 C 0,2.24 2.24,0 5,0 7.76,0 10,2.24 10,5 10,7.76 7.76,10 5,10 2.24,10 0,7.76 0,5 Z"
       copytype="single_stretched"
       prop_scale="0.63018992"
       scale_y_rel="false"
       spacing="0"
       normal_offset="0"
       tang_offset="0"
       prop_units="false"
       vertical_pattern="false"
       hide_knot="false"
       fuse_tolerance="0" />
    <inkscape:path-effect
       effect="skeletal"
       id="path-effect1291"
       is_visible="true"
       lpeversion="1"
       pattern="m 0.19100076,5.0188919 c 0,-2.76 2.24000004,-5.00000005 5.00000004,-5.00000005 2.76,0 5.0000002,2.24000005 5.0000002,5.00000005 0,2.76 -2.2400002,5.0000001 -5.0000002,5.0000001 -2.76,0 -5.00000004,-2.2400001 -5.00000004,-5.0000001 z"
       copytype="single_stretched"
       prop_scale="-0.35131343"
       scale_y_rel="false"
       spacing="0"
       normal_offset="0"
       tang_offset="0"
       prop_units="false"
       vertical_pattern="false"
       hide_knot="false"
       fuse_tolerance="0" />
    <inkscape:path-effect
       effect="skeletal"
       id="path-effect1287"
       is_visible="true"
       lpeversion="1"
       pattern="M 0,5 C 0,2.24 2.24,0 5,0 7.76,0 10,2.24 10,5 10,7.76 7.76,10 5,10 2.24,10 0,7.76 0,5 Z"
       copytype="single_stretched"
       prop_scale="1"
       scale_y_rel="false"
       spacing="0"
       normal_offset="0"
       tang_offset="0"
       prop_units="false"
       vertical_pattern="false"
       hide_knot="false"
       fuse_tolerance="0" />
  </defs>
  <sodipodi:namedview
     id="base"
     pagecolor="#ffffff"
     bordercolor="#666666"
     borderopacity="1.0"
     inkscape:pageopacity="0.0"
     inkscape:pageshadow="2"
     inkscape:zoom="0.27363227"
     inkscape:cx="1195.3864"
     inkscape:cy="274.39221"
     inkscape:document-units="mm"
     inkscape:current-layer="layer1"
     inkscape:document-rotation="0"
     showgrid="false"
     inkscape:snap-intersection-paths="false"
     inkscape:object-paths="false"
     inkscape:snap-smooth-nodes="false"
     inkscape:snap-midpoints="false"
     inkscape:object-nodes="false"
     inkscape:window-width="1294"
     inkscape:window-height="704"
     inkscape:window-x="72"
     inkscape:window-y="27"
     inkscape:window-maximized="1"
     fit-margin-top="50"
     fit-margin-left="50"
     fit-margin-right="50"
     fit-margin-bottom="50"
     lock-margins="true" />
  <metadata
     id="metadata5">
    <rdf:RDF>
      <cc:Work
         rdf:about="">
        <dc:format>image/svg+xml</dc:format>
        <dc:type
           rdf:resource="http://purl.org/dc/dcmitype/StillImage" />
        <dc:title></dc:title>
      </cc:Work>
    </rdf:RDF>
  </metadata>
  <g
     inkscape:groupmode="layer"
     id="layer5"
     inkscape:label="orelhas"
     style="display:inline"
     sodipodi:insensitive="true"
     transform="translate(33.539784,-0.96170732)">
    <path
       style="fill:#494040;fill-opacity:1;stroke:none;stroke-width:0.264583px;stroke-linecap:butt;stroke-linejoin:miter;stroke-opacity:1"
       d="M 26.359233,59.076931 70.109484,95.42509 47.113255,123.33879 33.898561,121.96925 28.263539,97.437482 22.700512,83.058356 19.526871,62.697912 Z"
       id="path1348" />
    <path
       style="fill:#494040;fill-opacity:1;stroke:#000000;stroke-width:0.264583px;stroke-linecap:butt;stroke-linejoin:miter;stroke-opacity:1"
       d="m 121.03961,98.987917 41.43871,-36.061799 9.57898,2.742086 0.67694,11.010699 -13.17338,43.452487 -9.69459,5.56257 -22.4267,-9.76474 z"
       id="path1350" />
  </g>
  <g
     inkscape:groupmode="layer"
     id="layer8"
     inkscape:label="fundoAmareloOlhos"
     sodipodi:insensitive="true"
     style="display:inline"
     transform="translate(33.539784,-0.96170732)">
    <rect
       style="opacity:1;fill:#978400;fill-opacity:1;stroke:none;stroke-width:0.384049;stroke-miterlimit:4;stroke-dasharray:none;stroke-opacity:1"
       id="rect1342"
       width="28.426384"
       height="26.178942"
       x="51.925442"
       y="130.96568" />
    <rect
       style="opacity:1;fill:#978400;fill-opacity:1;stroke:none;stroke-width:0.384049;stroke-miterlimit:4;stroke-dasharray:none;stroke-opacity:1"
       id="rect1344"
       width="28.426384"
       height="26.178942"
       x="107.65701"
       y="130.95061" />
  </g>
  <g
     inkscape:groupmode="layer"
     id="layer9"
     inkscape:label="fundopreto olhosOlhos 1"
     sodipodi:insensitive="true"
     style="display:inline"
     transform="translate(33.539784,-0.96170732)">
    <path
       style="opacity:1;fill:#494040;fill-opacity:1;stroke:#000000;stroke-width:0.264583px;stroke-linecap:butt;stroke-linejoin:miter;stroke-opacity:1"
       d="m 110.01973,143.54575 c -1.62177,0.78313 -2.61873,4.79755 -2.61873,4.79755 l 5.80372,4.94154 3.77468,-0.67954 0.57862,-2.30678 -0.46126,-0.89307 z"
       id="path1371" />
    <path
       style="fill:#494040;fill-opacity:1;stroke:#000000;stroke-width:0.264583px;stroke-linecap:butt;stroke-linejoin:miter;stroke-opacity:1"
       d="m 52.001126,149.59339 3.763592,4.85568 2.179116,7.22112 5.042638,-1.99207 -2.788039,-4.90827 -4.198403,-6.93478 z"
       id="path1373" />
    <path
       style="fill:#000001;fill-opacity:1;stroke:none;stroke-width:0.264583px;stroke-linecap:butt;stroke-linejoin:miter;stroke-opacity:1"
       d="m 57.123718,147.32731 c 1.384013,1.60608 4.679895,2.1841 7.347673,2.59028 1.623233,0.24714 7.409304,-1.05178 7.409304,-1.05178 l 0.871,5.10877 -12.540882,-1.6031 c 0,0 -4.459152,-6.63637 -3.087095,-5.04417 z"
       id="path1375"
       sodipodi:nodetypes="sscccs" />
    <path
       style="fill:#494040;fill-opacity:1;stroke:none;stroke-width:0.264583px;stroke-linecap:butt;stroke-linejoin:miter;stroke-opacity:1"
       d="m 74.161072,149.93994 0.823685,-3.18396 1.686994,-3.02698 2.861043,0.99663 -2.01403,5.09953 -2.954117,1.38655 z"
       id="path1377" />
  </g>
  <g
     inkscape:groupmode="layer"
     id="layer6"
     inkscape:label="trace"
     style="display:inline"
     sodipodi:insensitive="true"
     transform="translate(33.539784,-0.96170732)">
    <path
       id="path1306"
       style="display:inline;fill:#000000;stroke-width:2.28577"
       d="m 101.08203,192.61133 c -18.319633,0.0395 -35.904342,7.85522 -37.703124,20.3125 -3.598779,24.92273 0.619212,49.12913 19.78125,113.52734 15.109263,50.77795 16.068443,55.09056 14.251953,64.16211 -2.374129,11.85634 2.933781,32.68556 10.888671,42.72852 7.89907,9.97251 9.80668,46.2982 2.53906,48.34179 -1.01964,0.28676 -1.13944,3.05767 -0.26757,6.15821 0.87185,3.10053 0.66001,11.44189 -0.47071,18.53515 -3.20061,20.07795 -1.51413,36.0574 7.47071,70.76563 4.56927,17.65111 11.31272,44.57439 14.98437,59.83008 3.67165,15.25568 7.75281,28.53241 9.07031,29.5039 3.85732,2.8441 8.15111,13.93249 9.0918,21.73047 5.30571,7.26315 23.49676,30.67736 40.5918,34.67774 20.25289,4.73937 96.8105,33.11563 118.97851,42.64257 26.85691,11.542 88.90789,12.55227 130.2168,4.49024 41.30887,-8.06207 55.19763,-13.4751 97.83984,-42.11719 31.5871,-21.21653 41.81894,-22.36049 62.22461,-60.00391 0.70248,-1.2959 1.5021,-2.4623 2.375,-3.52929 0.2577,-0.95967 1.22781,-2.0627 2.72461,-2.93946 2.64654,-1.55017 3.59956,-3.64697 2.39453,-5.26367 -1.10124,-1.47757 -1.15543,-2.9242 -0.12109,-3.21484 2.08687,-0.58681 5.80309,-18.40546 4.33984,-20.8086 -0.50917,-0.83625 0.17004,-1.82825 1.50977,-2.20507 1.33973,-0.37675 1.53451,-1.89735 0.43164,-3.37696 -1.1029,-1.47972 -0.20149,-6.80826 2.00391,-11.84179 2.20543,-5.0335 4.27331,-13.50014 4.5957,-18.81446 0.32217,-5.31431 1.01439,-10.3166 1.53906,-11.11718 1.37394,-2.09598 3.22482,-21.99902 2.21289,-23.79883 -0.75065,-1.3352 1.38802,-17.62312 4.08203,-31.08985 0.51821,-2.59003 -0.84478,-9.78987 -3.02734,-15.99804 -2.53909,-7.22242 -3.26501,-12.8663 -2.01758,-15.67188 1.52897,-3.43884 0.966,-5.84367 -2.60547,-11.14453 -7.62448,-11.31651 -6.68455,-40.12602 1.38281,-42.39453 6.873,-1.93266 16.62245,-28.14701 13.97266,-37.57031 -0.57785,-2.05497 3.1454,-16.3583 8.27539,-31.78516 14.57428,-43.82732 16.01712,-48.59322 19.17578,-63.38867 24.56368,-115.0593 -36.04544,-133.95742 -141.4082,-44.09375 -35.21892,30.03815 -43.25533,37.21881 -52.18359,46.63086 -11.27142,11.88215 -18.39779,14.11317 -36.00782,11.26953 -8.20822,-1.32544 -20.52747,-3.33439 -27.375,-4.46484 -35.69844,-5.89342 -40.34911,-6.24205 -56.99414,-4.25391 -14.18336,1.69406 -39.16349,4.06433 -42.78515,4.06055 -2.94758,-0.004 -16.56331,1.1805 -24.63672,2.14258 -8.81133,1.04999 -21.65786,-2.06041 -24.45899,-5.92188 -1.33583,-1.84146 -4.87458,-4.81818 -7.86328,-6.61523 -2.9887,-1.79702 -15.66185,-14.26131 -28.16406,-27.69727 -33.251,-35.7345 -73.0396,-71.26202 -93.625,-83.59961 -7.83681,-4.6969 -17.63447,-6.80974 -27.23047,-6.78906 z m 1.24024,49.46679 c 0.91353,-0.0115 1.10346,0.86617 0.93164,2.72266 -0.24338,2.62965 2.56759,5.74088 8.03515,8.89063 4.62519,2.66445 8.90113,6.59179 9.50196,8.72851 0.60083,2.13668 2.56042,4.70978 4.35546,5.7168 2.47182,1.38687 2.83895,2.78782 1.50977,5.77539 -1.2142,2.72916 -0.90887,4.18628 0.99414,4.73242 1.51263,0.43412 2.44006,1.87094 2.06055,3.19336 -0.37948,1.32257 0.8554,1.96999 2.74218,1.43945 1.88677,-0.53057 3.70338,0.008 4.03711,1.19532 0.33385,1.18718 3.48226,2.07596 6.99805,1.97656 5.7532,-0.16237 6.00632,0.10406 2.52734,2.6543 -3.35043,2.45597 -2.61826,2.99898 5.48633,4.08007 9.01656,1.20276 11.53616,5.23797 4.50586,7.21485 -2.20199,0.6192 -2.58792,2.05523 -1.09179,4.0625 1.2729,1.70778 2.42977,3.51923 2.57226,4.02539 0.14234,0.50645 1.7452,0.50265 3.56055,-0.008 4.6566,-1.30942 5.35895,3.2027 0.73633,4.73046 -2.27124,0.75066 -2.56983,1.39073 -0.74024,1.5918 4.26603,0.46862 4.89315,4.17499 0.89649,5.29883 -1.81535,0.51046 -3.0218,1.9187 -2.68164,3.12891 0.3403,1.2099 2.20946,1.75392 4.15429,1.20703 1.99128,-0.55994 3.40855,0.38534 3.24414,2.16406 -0.19173,2.07141 1.92163,2.71354 6.13868,1.86719 9.88127,-1.98312 21.14757,-0.28729 16.20898,2.43945 -2.12682,1.17445 -6.34411,1.58818 -9.37109,0.91992 -3.02703,-0.66833 -6.3742,-0.7254 -7.43946,-0.12695 -3.7008,2.07912 -14.95912,1.07708 -14.28515,-1.27149 0.37288,-1.29925 -2.29903,-1.27611 -5.9375,0.0527 -11.78457,4.30394 -3.89809,11.71271 16.69531,15.68359 9.5184,1.83534 33.71744,12.21191 34.43555,14.76563 0.15307,0.5444 -5.91314,2.71892 -13.48047,4.83398 -13.67532,3.82235 -13.74688,3.88345 -11.62305,9.83008 1.17521,3.29065 1.14177,5.69651 -0.0742,5.34766 -1.21595,-0.34893 -2.43988,0.77261 -2.7207,2.49218 -0.41008,2.50946 -0.91836,2.65259 -2.57617,0.72461 -1.13602,-1.32113 -2.81402,-1.58713 -3.72852,-0.59179 -0.91449,0.9953 -1.95817,0.76015 -2.31836,-0.52149 -1.17301,-4.17158 -9.87328,0.0544 -9.78711,4.75391 0.0572,3.1197 -1.60473,4.77217 -5.4414,5.41015 -5.1941,0.86374 -5.25555,1.15509 -1.00782,4.85547 2.48527,2.16503 7.55441,8.74711 11.26368,14.62696 3.70926,5.87981 8.25155,11.73152 10.0957,13.0039 2.26242,1.56102 2.59019,2.52769 1.00781,2.97266 -1.2898,0.36268 -4.28195,-0.92575 -6.65039,-2.86328 -2.36844,-1.93758 -4.83339,-2.58153 -5.47852,-1.43164 -0.64512,1.14988 -1.29929,-0.54285 -1.45312,-3.76172 -0.39855,-8.33688 -7.56597,-13.30057 -12.44141,-8.61524 -4.50746,4.33164 -9.50161,-1.20628 -16.04883,-17.79882 -2.31918,-5.87751 -4.89605,-12.09744 -5.72851,-13.82227 -2.92368,-6.05798 2.31035,-5.8384 8.26367,0.3457 3.40007,3.53193 5.56626,4.6457 4.98047,2.5625 -0.57014,-2.0276 -2.19857,-4.02011 -3.61914,-4.42773 -1.42056,-0.40766 -3.08218,-2.51983 -3.69336,-4.69336 -0.61119,-2.17353 -4.63738,-5.51921 -8.94531,-7.43555 -11.87651,-5.28325 -18.05465,-16.92969 -13.59766,-25.63281 1.9192,-3.74759 4.42572,-6.29452 5.57031,-5.6582 2.50705,1.39385 -6.19679,-9.60503 -9.87304,-12.47657 -6.564305,-5.12738 -12.775232,-30.46137 -7.81055,-31.85742 4.61541,-1.29781 4.60508,-1.36736 -0.46875,-3.35547 -4.68683,-1.83643 -4.81609,-2.13856 -1.349609,-3.18164 2.10709,-0.63405 3.553199,-2.14327 3.21289,-3.35351 -0.34032,-1.21006 -2.372798,-1.79105 -4.517578,-1.29102 -2.329602,0.54308 -2.917647,0.15044 -1.460937,-0.97461 1.341135,-1.03581 2.067032,-3.20273 1.613281,-4.8164 -0.453751,-1.61364 0.271039,-3.78495 1.611328,-4.82422 1.808001,-1.40202 1.651639,-2.17522 -0.605469,-2.9961 -5.797341,-2.10841 -8.159207,-17.43809 -2.923828,-18.97851 1.366991,-0.40226 4.701241,-2.04612 7.408203,-3.65235 1.757119,-1.04262 2.904709,-1.59062 3.615239,-1.59961 z m 529.98242,28.76368 c 1.80567,-0.0755 3.3975,0.29191 4.68945,1.15429 4.5761,3.0545 4.64724,4.42961 0.25781,4.98633 -0.90047,0.11418 -0.79791,1.33054 0.22657,2.70508 1.02447,1.3745 0.50544,5.13531 -1.1543,8.35547 -1.65997,3.22019 -2.24894,6.28495 -1.3086,6.8125 0.94035,0.52758 0.0353,1.43024 -2.01171,2.00586 -2.04703,0.57558 -3.97398,3.85865 -4.28125,7.29492 -0.7928,8.8639 0.6998,12.7083 4.51757,11.63477 3.67786,-1.03423 4.21962,0.19291 3.26563,7.39257 -0.6237,4.70793 -0.72508,4.70796 -2.20117,0.0254 -0.85077,-2.69911 -2.47838,-4.64434 -3.61719,-4.32421 -3.22466,0.9067 -3.31541,4.05291 -0.24023,8.33984 3.74286,5.21786 3.70257,12.05603 -0.0781,13.11914 -1.67414,0.47078 -2.61686,2.37128 -2.0957,4.22461 0.52119,1.85333 -0.21499,4.23669 -1.63477,5.29492 -1.60445,1.19581 -1.5431,4.74465 0.16211,9.37695 1.87374,5.09031 1.8084,7.71647 -0.20703,8.28321 -1.62312,0.45645 -2.91286,2.95626 -2.86523,5.55468 0.0636,3.46685 -1.76382,5.24521 -6.86524,6.67969 -7.77812,2.18722 -14.51177,7.73174 -13.54883,11.15625 0.3484,1.23893 1.45126,1.36371 2.45117,0.27539 0.99992,-1.08827 2.12104,-0.89973 2.49219,0.41993 0.37111,1.31962 -0.65011,3.38668 -2.26953,4.59374 -1.61941,1.20711 -2.41766,4.07033 -1.77344,6.36133 0.64422,2.291 -0.31356,4.58134 -2.1289,5.0918 -1.81539,0.51046 -3.00794,1.97019 -2.65039,3.24219 0.35765,1.27196 -2.38009,4.7127 -6.08399,7.64648 v -0.002 c -7.67127,6.07631 -12.44958,7.86256 -14.93164,5.58203 -1.94955,-1.79127 2.33755,-9.02122 7.51758,-12.67969 5.93469,-4.19142 -3.35313,-20.31628 -9.93359,-17.24609 -1.80582,0.84253 -3.6436,0.5649 -4.08399,-0.61719 -0.4405,-1.18208 -3.20266,-7.35002 -6.13867,-13.70703 -2.9359,-6.35709 -5.55656,-12.10302 -5.82227,-12.76758 -0.72291,-1.80865 -16.29998,-9.50684 -18.17187,-8.98047 -0.89238,0.25093 -2.69612,-1.37858 -4.00977,-3.62109 -3.59905,-6.14411 7.4153,-6.72582 31.42188,-1.66016 5.03739,1.063 1.9212,-5.48651 -5.89649,-12.39258 -8.27633,-7.31126 -9.39258,-12.17417 -2.83593,-12.35937 8.06857,-0.22768 8.13813,-4.40506 0.14258,-8.56836 -8.76949,-4.56627 -9.49648,-7.25004 -2.02344,-7.46094 3.31676,-0.0936 5.62084,-1.12054 5.27539,-2.34961 -0.87315,-3.10499 7.95457,-7.81457 11.21679,-5.98437 4.94495,2.77432 14.02975,-1.02421 9.66016,-4.03906 -5.45408,-3.76309 -3.65909,-4.82565 7.10156,-4.20313 7.75389,0.44859 10.07115,-0.15793 12.16407,-3.18359 8.65443,-12.51133 20.47618,-21.13561 28.30078,-21.46289 z m -528.43946,16.81445 c -2.39252,-0.085 -2.80008,4.69074 -0.44726,7.94141 0.9817,1.35636 2.66924,2.21793 3.75,1.91406 2.58399,-0.72662 0.24339,-8.90044 -2.79883,-9.77344 -0.17693,-0.0508 -0.3444,-0.0764 -0.50391,-0.082 z m 68.29883,25.63672 c 0.27546,-0.0297 0.59603,0.002 0.95117,0.10351 1.42058,0.40766 2.70738,1.17727 2.85743,1.71094 0.15004,0.53371 -0.7175,1.24969 -1.92774,1.58985 -1.21024,0.3403 -2.4949,-0.42927 -2.85547,-1.71094 -0.27031,-0.96137 0.14825,-1.60418 0.97461,-1.69336 z m -72.978513,15.50586 c 1.767183,0.0912 3.631283,1.3108 4.658203,3.61133 1.01111,2.26507 0.10238,3.99886 -2.47852,4.72461 -5.037906,1.4166 -7.547378,-0.66163 -6.251949,-5.17579 0.635545,-2.2147 2.305086,-3.25138 4.072266,-3.16015 z m 87.148433,15.39648 c 1.14723,-0.10887 2.88985,0.73214 4.28907,2.60938 1.32238,1.77396 2.18883,3.60908 1.92578,4.07812 -0.85251,1.51952 -5.57657,-0.9343 -6.9375,-3.60351 -0.97756,-1.91726 -0.42457,-2.97512 0.72265,-3.08399 z m 433.95704,15.67578 c -0.22229,0.0149 -0.4458,0.0528 -0.66797,0.11524 -1.96944,0.55377 -2.37393,2.0599 -1.03711,3.85351 1.20714,1.61946 3.07944,2.6945 4.16015,2.39063 1.08076,-0.30388 1.54758,-2.03618 1.03711,-3.85156 -0.44669,-1.58843 -1.93621,-2.6118 -3.49218,-2.50782 z m -95.16407,6.57422 c 1.29151,-0.0608 2.5797,0.4657 2.90625,1.62696 0.15005,0.53366 -1.27142,1.40497 -3.1582,1.93554 -1.88682,0.53057 -3.09201,-0.21645 -2.67773,-1.66015 0.34229,-1.19278 1.63818,-1.84153 2.92968,-1.90235 z m 12.2793,5.59961 c 0.5275,-0.0422 1.38973,0.25011 2.6582,0.81446 2.239,0.99613 4.26788,2.51661 4.50977,3.37695 0.24193,0.86033 -1.04595,1.98172 -2.86133,2.49219 -1.81531,0.5105 -3.84415,-1.00999 -4.50977,-3.37696 -0.62841,-2.23493 -0.67603,-3.2363 0.20313,-3.30664 z m -9.24023,4.23438 c 1.09881,0.0246 2.6625,1.02435 3.71875,2.4414 1.33681,1.79362 0.93333,3.30001 -1.03516,3.85352 -1.77736,0.4998 -3.64969,-0.57524 -4.16016,-2.39063 -0.5105,-1.81534 -0.0436,-3.54964 1.03711,-3.85351 0.1351,-0.038 0.28248,-0.0543 0.43946,-0.0508 z m -31.91211,11.63672 c 0.33726,-0.0598 1.01988,0.43574 2.12304,1.41601 4.07195,3.61841 3.7721,11.074 -0.69726,17.35742 -5.14802,7.23765 -11.80941,5.65236 -14.35938,-3.41601 -1.28874,-4.58306 8.30539,-13.2464 11.49414,-10.37891 2.24999,2.02333 2.60869,1.62979 1.6875,-1.84961 -0.5451,-2.05897 -0.68167,-3.05204 -0.24804,-3.1289 z m -316.80469,11.15039 c 0.74696,-0.097 1.48148,1.22764 2.27148,4.03711 1.90878,6.78799 1.03381,7.89468 -2.49804,3.15625 -1.34166,-1.8 -1.70508,-4.5842 -0.80664,-6.18555 0.35111,-0.62584 0.69367,-0.96371 1.0332,-1.00781 z m 393.9668,25.27734 c 0.42217,-0.0455 0.79947,0.16837 1.125,0.64844 0.88679,1.30779 0.49542,3.62006 -0.86914,5.13867 -4.51272,5.02216 -6.49001,4.04135 -3.59376,-1.7832 1.26609,-2.54623 2.40912,-3.90369 3.3379,-4.00391 z m -430.61914,0.084 c 5.80568,-0.19838 13.23181,1.62203 15.97265,4.86524 4.67244,5.52884 1.80797,20.43947 -3.82617,19.91797 -2.14866,-0.19884 -4.287,0.96561 -4.75195,2.58594 -1.29245,4.50387 -5.29357,-0.10993 -5.10157,-5.88282 0.0943,-2.83702 -0.84682,-4.49048 -2.32031,-4.07617 -1.3632,0.38336 -2.15868,-0.41847 -1.76758,-1.78125 0.39103,-1.36278 -1.09716,-4.12173 -3.30664,-6.13281 -2.97702,-2.70977 -3.55568,-4.47846 -2.23633,-6.83008 0.9542,-1.70074 3.85448,-2.54698 7.3379,-2.66602 z m 442.9375,12.90039 c 3.24119,-0.0283 2.48049,2.0757 -1.51954,8.16797 -4.90439,7.46979 -7.84639,8.72551 -10.88672,4.64649 -3.38959,-4.54764 0.52019,-10.63404 7.80274,-12.14453 1.99809,-0.41444 3.52312,-0.66051 4.60352,-0.66993 z m -355.7129,65.31446 c 5.16987,-0.0743 10.69771,0.81198 16.20508,2.78906 4.00883,1.43913 8.28957,2.33575 9.51172,1.99219 5.09613,-1.43301 22.94828,18.37894 26.88477,29.83594 2.14813,6.25209 2.96252,11.63274 1.80859,11.95703 -1.15396,0.32451 -2.36359,-0.35341 -2.6875,-1.50586 -0.32406,-1.15246 -2.50101,1.02984 -4.83789,4.84765 -2.33688,3.81778 -5.95163,8.05966 -8.0332,9.42774 -4.24955,2.79292 -4.1985,6.15648 0.0977,6.36133 1.55804,0.0743 2.43669,1.51907 1.95118,3.21093 -1.06122,3.69812 -4.78362,5.09456 -5.62305,2.10938 -0.32961,-1.17207 -1.92543,-1.14457 -3.54492,0.0625 -1.81006,1.34918 -3.30107,0.92356 -3.8711,-1.10352 -0.89873,-3.19627 -7.9532,-4.01519 -19.58398,-2.27343 -3.10662,0.46518 -6.15973,0.12063 -6.78321,-0.76563 -0.62347,-0.88634 -3.27298,-3.67965 -5.88867,-6.20898 -18.68609,-18.06902 -24.65634,-29.94723 -21.86523,-43.49805 2.17986,-10.58311 13.04787,-17.04841 26.25976,-17.23828 z m 252.19141,1.75195 c 29.12238,0.16818 32.30793,28.11406 0.95508,50.71289 -5.89281,4.24751 -10.76091,7.61023 -10.81836,7.47266 -0.0572,-0.13754 -4.90396,0.264 -10.77149,0.89258 -21.77926,2.33317 -40.33227,-13.60241 -35.48828,-30.48243 1.09852,-3.82801 25.32822,-24.76662 28.58594,-24.70312 1.31312,0.0256 8.3553,-1.161 15.65039,-2.63672 4.34286,-0.87853 8.31029,-1.27651 11.88672,-1.25586 z m -16.83789,6.70313 c -1.21891,-0.1173 -2.63979,0.45039 -4.28906,1.67968 -3.73372,2.78302 -4.57375,10.2363 -1.17188,10.39844 3.90422,0.18611 4.7311,6.23291 0.9961,7.2832 -3.38827,0.95275 -2.72042,6.96628 1.38672,12.47657 5.44539,7.3056 10.59698,-5.3999 8.45312,-20.84766 -0.99301,-7.15533 -2.69341,-10.73219 -5.375,-10.99023 z m -217.72852,0.83007 c -1.65953,-0.12038 -3.46565,1.46537 -5.09179,5.39454 -3.05133,7.37283 -1.64851,10.89224 3.74023,9.37695 1.74391,-0.49039 3.58915,0.59286 4.09961,2.4082 1.11394,3.96136 -3.47189,5.65081 -8.17578,3.01172 -2.63123,-1.47621 -2.8744,-0.0882 -1.09375,6.24414 2.97744,10.58846 7.65841,9.41773 10.87305,-2.71875 3.16748,-11.95841 -0.11052,-23.40913 -4.35157,-23.7168 z m 43.49219,37.22852 c 0.28078,-0.0239 0.48824,0.17014 0.59961,0.60547 0.43805,1.71239 -0.43549,5.86283 -1.9414,9.22461 -1.50596,3.36181 -3.32147,6.27782 -4.03516,6.47851 -2.64824,0.74468 -2.11674,-3.15915 1.48047,-10.87695 1.55233,-3.33048 3.05414,-5.35992 3.89648,-5.43164 z m 129.60547,0.14063 c 1.89038,0.0901 4.50425,2.10871 5.33594,5.0664 1.08298,3.85134 -5.10363,9.60029 -8.36328,7.77149 -2.65542,-1.48978 -4.06847,-9.25514 -1.55274,-8.53321 1.29922,0.37285 2.42321,-0.60365 2.49805,-2.16992 0.0738,-1.54816 0.9478,-2.18882 2.08203,-2.13476 z m 15.64844,14.2246 c 0.98999,-0.056 1.49342,0.76286 1.13672,2.00586 -0.40766,1.42054 -1.17723,2.70543 -1.71094,2.85547 -0.53367,0.15005 -1.24969,-0.71749 -1.58984,-1.92773 -0.34031,-1.21024 0.42926,-2.4949 1.71093,-2.85547 0.16023,-0.045 0.3117,-0.0701 0.45313,-0.0781 z m -230.27539,0.64258 c 1.05827,-0.0752 2.06759,0.6012 2.36523,1.66016 0.34031,1.21024 -0.37179,2.48015 -1.58203,2.82031 -1.2102,0.34031 -2.48015,-0.37183 -2.82031,-1.58203 -0.34031,-1.21024 0.37179,-2.4782 1.58203,-2.81836 0.15128,-0.0425 0.3039,-0.0693 0.45508,-0.0801 z m 6.38476,5.32813 c 0.99,-0.056 1.49342,0.76286 1.13672,2.00586 -0.40766,1.42057 -1.17723,2.70542 -1.71094,2.85547 -0.5337,0.15004 -1.24968,-0.7175 -1.58984,-1.92774 -0.34031,-1.21017 0.42926,-2.4949 1.71094,-2.85547 0.16023,-0.045 0.3117,-0.0701 0.45312,-0.0781 z m 12.41993,27.375 c 0.99922,-0.0586 1.96408,0.63046 2.26171,1.68945 0.34031,1.21021 -0.92572,2.63552 -2.8125,3.16602 -1.88681,0.53057 -3.09711,-0.19861 -2.68945,-1.61914 0.40766,-1.42058 1.67369,-2.84394 2.8125,-3.16407 0.14235,-0.04 0.28499,-0.0639 0.42774,-0.0723 z"
       transform="scale(0.26458333)" />
  </g>
  <g
     inkscape:groupmode="layer"
     id="layer10"
     inkscape:label="nariz"
     sodipodi:insensitive="true"
     style="display:inline;mix-blend-mode:normal"
     transform="translate(33.539784,-0.96170732)">
    <path
       style="fill:#242023;fill-opacity:1;stroke:none;stroke-width:0.264583px;stroke-linecap:butt;stroke-linejoin:miter;stroke-opacity:1"
       d="m 83.970357,174.45269 c 0.03088,1.8355 3.32198,1.85893 4.346209,3.3824 1.051285,1.56372 0.293565,4.02068 1.531281,5.44141 1.2388,1.42198 3.313985,2.50281 5.184773,2.26449 1.625956,-0.20713 2.96433,-1.66814 3.868883,-3.03504 0.827879,-1.25104 0.29442,-3.12878 1.172607,-4.34503 0.95501,-1.32264 3.0151,-1.46458 4.08395,-2.69705 0.4643,-0.53538 1.12125,-1.2459 0.9088,-1.92197 -0.38544,-1.22656 -2.19117,-1.35385 -3.34694,-1.91707 -0.97065,-0.47301 -1.922829,-1.29564 -3.000064,-1.22175 -1.891167,0.12972 -3.029506,2.80209 -4.924655,2.84391 -1.938227,0.0428 -3.232545,-2.89192 -5.16001,-2.68352 -2.01275,0.21762 -4.698886,1.86503 -4.664834,3.88922 z"
       id="path1400"
       sodipodi:nodetypes="sssssssssssss" />
  </g>
  <g
     inkscape:groupmode="layer"
     id="layer1"
     inkscape:label="Texto">
    <text
       xml:space="preserve"
       style="font-size:88.1944px;line-height:1.25;font-family:sans-serif;word-spacing:0px;stroke-width:0.264583"
       x="226.49947"
       y="145.23213"
       id="text2479"><tspan
         sodipodi:role="line"
         id="tspan2477"
         x="226.49947"
         y="145.23213"
         style="font-style:normal;font-variant:normal;font-weight:normal;font-stretch:normal;font-size:88.1944px;font-family:Uroob;-inkscape-font-specification:Uroob;stroke-width:0.264583">Magnus-qPCR</tspan></text>
  </g>
</svg>
